<svg fill="#000000" version="1.1" id="Layer_1" xmlns:x="&amp;ns_extend;" xmlns:i="&amp;ns_ai;" xmlns:graph="&amp;ns_graphs;" xmlns="http://www.w3.org/2000/svg" xmlns:xlink="http://www.w3.org/1999/xlink" viewBox="0 0 24 24" enable-background="new 0 0 24 24" xml:space="preserve"><g id="SVGRepo_bgCarrier" stroke-width="0"></g><g id="SVGRepo_tracerCarrier" stroke-linecap="round" stroke-linejoin="round"></g><g id="SVGRepo_iconCarrier"> <metadata> <sfw xmlns="&amp;ns_sfw;"> <slices> </slices> <slicesourcebounds width="505" height="984" bottomleftorigin="true" x="0" y="-984"> </slicesourcebounds> </sfw> </metadata> <g> <g> <g> <path d="M9,3H7c0-1.7,1.3-3,3-3v2C9.4,2,9,2.4,9,3z"></path> </g> </g> <g> <g> <path d="M17,3h-2c0-0.6-0.4-1-1-1V0C15.7,0,17,1.3,17,3z"></path> </g> </g> <g> <g> <polygon points="17,6 7,6 7,3 9,3 9,4 15,4 15,3 17,3 "></polygon> </g> </g> <g> <g> <rect x="10" width="4" height="2"></rect> </g> </g> <g> <g> <path d="M21,6H3C2.4,6,2,5.6,2,5s0.4-1,1-1h18c0.6,0,1,0.4,1,1S21.6,6,21,6z"></path> </g> </g> <g> <g> <path d="M19,24H5c-0.6,0-1-0.4-1-1V9c0-0.6,0.4-1,1-1h14c0.6,0,1,0.4,1,1v14C20,23.6,19.6,24,19,24z M6,22h12V10H6V22z"></path> </g> </g> <g> <g> <path d="M10,20c-0.6,0-1-0.4-1-1v-6c0-0.6,0.4-1,1-1s1,0.4,1,1v6C11,19.6,10.6,20,10,20z"></path> </g> </g> <g> <g> <path d="M14,20c-0.6,0-1-0.4-1-1v-6c0-0.6,0.4-1,1-1s1,0.4,1,1v6C15,19.6,14.6,20,14,20z"></path> </g> </g> </g> </g></svg>